<!-- SVG placeholder icon - replace with actual branded icon -->
<svg xmlns="http://www.w3.org/2000/svg" viewBox="0 0 512 512" width="512" height="512">
  <defs>
    <linearGradient id="grad1" x1="0%" y1="0%" x2="100%" y2="100%">
      <stop offset="0%" style="stop-color:#667eea;stop-opacity:1" />
      <stop offset="100%" style="stop-color:#764ba2;stop-opacity:1" />
    </linearGradient>
  </defs>
  
  <!-- Background -->
  <rect width="512" height="512" rx="128" fill="url(#grad1)"/>
  
  <!-- Game controller icon -->
  <g transform="translate(128, 180)">
    <!-- Controller body -->
    <path d="M 128 0 C 57.6 0 0 35.2 0 78.4 C 0 121.6 57.6 156.8 128 156.8 C 198.4 156.8 256 121.6 256 78.4 C 256 35.2 198.4 0 128 0 Z" fill="white" opacity="0.95"/>
    
    <!-- D-pad -->
    <rect x="50" y="50" width="15" height="45" rx="3" fill="#667eea"/>
    <rect x="42" y="58" width="31" height="15" rx="3" fill="#667eea"/>
    
    <!-- Buttons -->
    <circle cx="180" cy="60" r="10" fill="#667eea"/>
    <circle cx="205" cy="70" r="10" fill="#667eea"/>
    <circle cx="180" cy="80" r="10" fill="#667eea"/>
    <circle cx="155" cy="70" r="10" fill="#667eea"/>
    
    <!-- Grips -->
    <ellipse cx="40" cy="100" rx="30" ry="40" fill="white" opacity="0.8"/>
    <ellipse cx="216" cy="100" rx="30" ry="40" fill="white" opacity="0.8"/>
  </g>
  
  <!-- Platform name -->
  <text x="256" y="380" font-family="Arial, sans-serif" font-size="48" font-weight="bold" fill="white" text-anchor="middle">CUR8</text>
  <text x="256" y="420" font-family="Arial, sans-serif" font-size="24" fill="white" text-anchor="middle" opacity="0.9">GAMES</text>
</svg>
